<mxfile host="app.diagrams.net" modified="2023-11-02T11:40:59.580Z" agent="Mozilla/5.0 (Windows NT 10.0; Win64; x64; rv:120.0) Gecko/20100101 Firefox/120.0" etag="nH_KrEx6ZR-9cILx6yS0" version="22.0.8" type="github">
  <diagram name="Page-1" id="lyMA4xQT6dWiiQApFJUH">
    <mxGraphModel dx="1946" dy="968" grid="1" gridSize="10" guides="1" tooltips="1" connect="1" arrows="1" fold="1" page="1" pageScale="1" pageWidth="827" pageHeight="1169" math="0" shadow="0">
      <root>
        <mxCell id="0" />
        <mxCell id="1" parent="0" />
        <mxCell id="Q8OxptMl0lt1n72SlpGy-4" value="" style="edgeStyle=orthogonalEdgeStyle;rounded=0;orthogonalLoop=1;jettySize=auto;html=1;" edge="1" parent="1" source="Q8OxptMl0lt1n72SlpGy-1" target="Q8OxptMl0lt1n72SlpGy-3">
          <mxGeometry relative="1" as="geometry">
            <Array as="points">
              <mxPoint x="490" y="430" />
              <mxPoint x="220" y="430" />
            </Array>
          </mxGeometry>
        </mxCell>
        <mxCell id="Q8OxptMl0lt1n72SlpGy-18" style="edgeStyle=orthogonalEdgeStyle;rounded=0;orthogonalLoop=1;jettySize=auto;html=1;entryX=0.5;entryY=0;entryDx=0;entryDy=0;" edge="1" parent="1" source="Q8OxptMl0lt1n72SlpGy-1" target="Q8OxptMl0lt1n72SlpGy-6">
          <mxGeometry relative="1" as="geometry" />
        </mxCell>
        <mxCell id="Q8OxptMl0lt1n72SlpGy-1" value="Производственный персонал" style="whiteSpace=wrap;html=1;" vertex="1" parent="1">
          <mxGeometry x="430" y="270" width="120" height="60" as="geometry" />
        </mxCell>
        <mxCell id="Q8OxptMl0lt1n72SlpGy-7" value="" style="edgeStyle=orthogonalEdgeStyle;rounded=0;orthogonalLoop=1;jettySize=auto;html=1;" edge="1" parent="1" source="Q8OxptMl0lt1n72SlpGy-3" target="Q8OxptMl0lt1n72SlpGy-6">
          <mxGeometry relative="1" as="geometry" />
        </mxCell>
        <mxCell id="Q8OxptMl0lt1n72SlpGy-15" value="" style="edgeStyle=orthogonalEdgeStyle;rounded=0;orthogonalLoop=1;jettySize=auto;html=1;" edge="1" parent="1" source="Q8OxptMl0lt1n72SlpGy-3" target="Q8OxptMl0lt1n72SlpGy-14">
          <mxGeometry relative="1" as="geometry" />
        </mxCell>
        <mxCell id="Q8OxptMl0lt1n72SlpGy-3" value="" style="whiteSpace=wrap;html=1;" vertex="1" parent="1">
          <mxGeometry x="160" y="540" width="120" height="60" as="geometry" />
        </mxCell>
        <mxCell id="Q8OxptMl0lt1n72SlpGy-9" value="" style="edgeStyle=orthogonalEdgeStyle;rounded=0;orthogonalLoop=1;jettySize=auto;html=1;" edge="1" parent="1" source="Q8OxptMl0lt1n72SlpGy-6" target="Q8OxptMl0lt1n72SlpGy-8">
          <mxGeometry relative="1" as="geometry">
            <Array as="points">
              <mxPoint x="420" y="430" />
              <mxPoint x="620" y="430" />
            </Array>
          </mxGeometry>
        </mxCell>
        <mxCell id="Q8OxptMl0lt1n72SlpGy-6" value="" style="whiteSpace=wrap;html=1;" vertex="1" parent="1">
          <mxGeometry x="360" y="540" width="120" height="60" as="geometry" />
        </mxCell>
        <mxCell id="Q8OxptMl0lt1n72SlpGy-11" value="" style="edgeStyle=orthogonalEdgeStyle;rounded=0;orthogonalLoop=1;jettySize=auto;html=1;" edge="1" parent="1" source="Q8OxptMl0lt1n72SlpGy-8" target="Q8OxptMl0lt1n72SlpGy-10">
          <mxGeometry relative="1" as="geometry" />
        </mxCell>
        <mxCell id="Q8OxptMl0lt1n72SlpGy-8" value="" style="whiteSpace=wrap;html=1;" vertex="1" parent="1">
          <mxGeometry x="560" y="540" width="120" height="60" as="geometry" />
        </mxCell>
        <mxCell id="Q8OxptMl0lt1n72SlpGy-13" value="" style="edgeStyle=orthogonalEdgeStyle;rounded=0;orthogonalLoop=1;jettySize=auto;html=1;" edge="1" parent="1" source="Q8OxptMl0lt1n72SlpGy-10" target="Q8OxptMl0lt1n72SlpGy-12">
          <mxGeometry relative="1" as="geometry" />
        </mxCell>
        <mxCell id="Q8OxptMl0lt1n72SlpGy-10" value="" style="whiteSpace=wrap;html=1;" vertex="1" parent="1">
          <mxGeometry x="760" y="540" width="120" height="60" as="geometry" />
        </mxCell>
        <mxCell id="Q8OxptMl0lt1n72SlpGy-12" value="" style="whiteSpace=wrap;html=1;" vertex="1" parent="1">
          <mxGeometry x="960" y="540" width="120" height="60" as="geometry" />
        </mxCell>
        <mxCell id="Q8OxptMl0lt1n72SlpGy-17" value="" style="edgeStyle=orthogonalEdgeStyle;rounded=0;orthogonalLoop=1;jettySize=auto;html=1;" edge="1" parent="1" source="Q8OxptMl0lt1n72SlpGy-14" target="Q8OxptMl0lt1n72SlpGy-16">
          <mxGeometry relative="1" as="geometry">
            <Array as="points">
              <mxPoint x="220" y="630" />
              <mxPoint x="420" y="630" />
            </Array>
          </mxGeometry>
        </mxCell>
        <mxCell id="Q8OxptMl0lt1n72SlpGy-14" value="" style="whiteSpace=wrap;html=1;" vertex="1" parent="1">
          <mxGeometry x="160" y="680" width="120" height="60" as="geometry" />
        </mxCell>
        <mxCell id="Q8OxptMl0lt1n72SlpGy-16" value="" style="whiteSpace=wrap;html=1;" vertex="1" parent="1">
          <mxGeometry x="360" y="680" width="120" height="60" as="geometry" />
        </mxCell>
      </root>
    </mxGraphModel>
  </diagram>
</mxfile>
